HIERARCHY
ROOT Hips
{
 OFFSET 0.000000 0.000000 0.000000
 CHANNELS 6 Xposition Yposition Zposition Yrotation Xrotation Zrotation
 JOINT Chest
 {
  OFFSET 0.000000 9.303000 0.001900
  CHANNELS 3 Yrotation Xrotation Zrotation
  JOINT Chest2
  {
   OFFSET 0.000000 9.301100 -0.003900
   CHANNELS 3 Yrotation Xrotation Zrotation
   JOINT Chest3
   {
    OFFSET 0.000000 9.262800 0.000000
    CHANNELS 3 Yrotation Xrotation Zrotation
    JOINT Chest4
    {
     OFFSET 0.000000 9.253300 0.000000
     CHANNELS 3 Yrotation Xrotation Zrotation
     JOINT Neck
     {
      OFFSET 0.000000 14.010300 0.000000
      CHANNELS 3 Yrotation Xrotation Zrotation
      JOINT Head
      {
       OFFSET 0.000000 8.657600 -0.008300
       CHANNELS 3 Yrotation Xrotation Zrotation
       End Site
       {
        OFFSET 0.000000 16.540200 -0.004400
       }
      }
     }
     JOINT RightCollar
     {
      OFFSET -2.834100 9.267700 0.000000
      CHANNELS 3 Yrotation Xrotation Zrotation
      JOINT RightShoulder
      {
       OFFSET -13.135200 0.000000 0.000000
       CHANNELS 3 Yrotation Xrotation Zrotation
       JOINT RightElbow
       {
        OFFSET 0.000000 -28.893500 0.000000
        CHANNELS 3 Yrotation Xrotation Zrotation
        JOINT RightWrist
        {
         OFFSET 0.000000 -23.344000 0.000000
         CHANNELS 3 Yrotation Xrotation Zrotation
         End Site
         {
          OFFSET 0.000000 -17.223000 0.000000
         }
        }
       }
      }
     }
     JOINT LeftCollar
     {
      OFFSET 2.834100 9.267700 0.000000
      CHANNELS 3 Yrotation Xrotation Zrotation
      JOINT LeftShoulder
      {
       OFFSET 13.135200 0.000000 0.000000
       CHANNELS 3 Yrotation Xrotation Zrotation
       JOINT LeftElbow
       {
        OFFSET 0.000000 -28.893500 0.000000
        CHANNELS 3 Yrotation Xrotation Zrotation
        JOINT LeftWrist
        {
         OFFSET 0.000000 -23.344000 0.000000
         CHANNELS 3 Yrotation Xrotation Zrotation
         End Site
         {
          OFFSET 0.000000 -17.223000 0.000000
         }
        }
       }
      }
     }
    }
   }
  }
 }
 JOINT RightHip
 {
  OFFSET -7.547200 -0.009500 -0.001000
  CHANNELS 3 Yrotation Xrotation Zrotation
  JOINT RightKnee
  {
   OFFSET 0.000000 -39.762800 0.000900
   CHANNELS 3 Yrotation Xrotation Zrotation
   JOINT RightAnkle
   {
    OFFSET 0.000000 -38.588200 0.001600
    CHANNELS 3 Yrotation Xrotation Zrotation
    JOINT RightToe
    {
     OFFSET 0.000000 -4.693300 10.419700
     CHANNELS 3 Yrotation Xrotation Zrotation
     End Site
     {
      OFFSET 0.000000 -1.379900 5.669300
     }
    }
   }
  }
 }
 JOINT LeftHip
 {
  OFFSET 7.547200 -0.009500 -0.001000
  CHANNELS 3 Yrotation Xrotation Zrotation
  JOINT LeftKnee
  {
   OFFSET 0.000000 -39.762800 0.000900
   CHANNELS 3 Yrotation Xrotation Zrotation
   JOINT LeftAnkle
   {
    OFFSET 0.000000 -38.588200 0.001600
    CHANNELS 3 Yrotation Xrotation Zrotation
    JOINT LeftToe
    {
     OFFSET 0.000000 -4.693300 10.419700
     CHANNELS 3 Yrotation Xrotation Zrotation
     End Site
     {
      OFFSET 0.000000 -1.379900 5.669300
     }
    }
   }
  }
 }
}
MOTION
Frames: 13
Frame Time: 0.008333
6.223950 45.999572 4.645241 161.988227 -15.943567 0.950207 -1.042589 4.029964 1.771149 -0.046697 0.115503 0.069285 -0.082829 0.205074 0.122965 -1.478029 3.863798 2.253685 3.433114 19.859400 -1.728240 4.072081 -4.592145 -2.636705 -3.824482 4.210936 -10.095506 -10.135169 -2.987763 -12.911281 -50.022834 -77.203310 76.108135 -8.772901 -3.205506 -11.036568 -10.042808 -1.355567 -2.817303 2.734398 -5.543348 26.566113 27.506143 -44.185818 -75.059154 6.042604 1.467063 -5.674958 -12.062651 -72.383497 11.014860 -127.678266 85.145052 -128.254427 -10.954840 -8.196003 -0.779103 0.324816 -0.550069 0.068751 0.628286 -70.269335 22.674851 77.366384 76.228479 75.975832 -11.550198 -4.682985 -0.557170 0.056739 0.769387 0.023951
6.243490 46.010866 4.673096 161.864495 -16.119537 0.974225 -1.111566 4.003017 1.791224 -0.048576 0.115662 0.070276 -0.086226 0.205424 0.124623 -1.533309 3.853936 2.273518 3.475279 20.033042 -1.765097 4.128933 -4.391018 -2.687622 -3.605357 4.048703 -10.076930 -10.038453 -3.613151 -14.001156 -52.296527 -77.256956 78.517825 -8.843002 -3.314282 -10.954530 -9.909556 -1.419485 -2.633485 3.148473 -5.699406 27.024985 28.068484 -43.818558 -75.882461 5.985366 1.702413 -6.079429 -11.885838 -72.205219 10.976909 -126.931557 85.160414 -127.492001 -10.977794 -8.145708 -0.801710 0.312887 -0.560804 0.075088 0.747810 -70.077349 22.702818 77.179779 76.234592 75.790914 -11.553832 -4.628998 -0.553653 0.051555 0.741770 0.021465
6.264066 46.022725 4.697374 161.776472 -16.311205 0.980767 -1.203159 3.995289 1.817399 -0.050217 0.115829 0.071298 -0.089104 0.205758 0.126382 -1.579778 3.844976 2.294853 3.503204 20.206942 -1.798850 4.169684 -4.189697 -2.731841 -3.374973 3.898539 -10.053568 -9.875517 -4.238861 -15.042372 -54.652799 -77.309966 80.932273 -8.924943 -3.421635 -10.877975 -9.767644 -1.471387 -2.452546 3.578991 -5.909929 27.455583 28.645560 -43.474349 -76.714929 5.939583 1.923077 -6.476499 -11.742517 -72.009199 10.941028 -126.307735 85.163612 -126.851869 -11.015957 -8.110555 -0.810689 0.283233 -0.572627 0.074499 0.788770 -69.828782 22.809292 76.756512 76.272957 75.346457 -11.634753 -4.623075 -0.584739 0.135898 0.780716 0.056959
6.283827 46.034404 4.718300 161.667282 -16.511348 0.993953 -1.260211 4.002265 1.840549 -0.051563 0.115979 0.072279 -0.091471 0.205937 0.128127 -1.617224 3.835870 2.317240 3.516851 20.379981 -1.827649 4.193705 -3.989705 -2.767336 -3.140294 3.761839 -10.025923 -9.666385 -4.859626 -16.034250 -57.095217 -77.360153 83.371698 -9.031381 -3.534692 -10.806929 -9.621520 -1.513216 -2.278746 4.027815 -6.164266 27.860165 29.246521 -43.161919 -77.565379 5.908596 2.123736 -6.866161 -11.560225 -71.807410 10.875736 -125.811443 85.172405 -126.343763 -10.991096 -8.070771 -0.829282 0.281172 -0.586243 0.083594 0.827477 -69.599788 22.895462 76.559820 76.296567 75.147019 -11.631168 -4.591195 -0.593993 0.147686 0.767632 0.054862
6.302411 46.041972 4.747612 161.500064 -16.645703 1.001434 -1.243650 3.953019 1.883383 -0.052605 0.115992 0.073187 -0.093346 0.205950 0.129806 -1.645672 3.825607 2.340222 3.516571 20.550056 -1.849956 4.200892 -3.793543 -2.792527 -2.902916 3.634680 -9.989425 -9.437741 -5.467198 -16.985690 -59.654942 -77.398946 85.886593 -9.163844 -3.651622 -10.741135 -9.475822 -1.547509 -2.116237 4.491531 -6.454564 28.237131 29.881662 -42.882833 -78.433776 5.890154 2.307979 -7.247795 -11.409024 -71.669799 10.894230 -125.150007 85.216896 -125.655974 -10.967554 -7.983793 -0.876440 0.309421 -0.606452 0.099856 0.870608 -69.449787 23.027517 76.451133 76.309572 75.041232 -11.602174 -4.561272 -0.584898 0.128257 0.749987 0.036026
6.318730 46.048864 4.771490 161.369988 -16.797333 1.007059 -1.246785 3.932158 1.915040 -0.053398 0.115940 0.074094 -0.094729 0.205932 0.131405 -1.666464 3.815586 2.362960 3.501117 20.713680 -1.866822 4.190164 -3.605281 -2.808183 -2.663424 3.505813 -9.944019 -9.211306 -6.057078 -17.902391 -62.350755 -77.412109 88.513502 -9.312242 -3.764305 -10.684275 -9.337328 -1.580626 -1.971371 4.977859 -6.771472 28.584770 30.556326 -42.639157 -79.324435 5.876497 2.477969 -7.618724 -11.234113 -71.518301 10.849700 -124.625643 85.244098 -125.103481 -10.941638 -7.921735 -0.906540 0.321801 -0.620091 0.109640 0.902305 -69.285514 23.131824 76.347011 76.322056 74.942970 -11.584035 -4.529935 -0.578962 0.116519 0.734585 0.024365
6.332228 46.054990 4.789049 161.279547 -16.970583 1.013127 -1.269686 3.945005 1.934605 -0.054007 0.116083 0.075010 -0.095749 0.206162 0.133041 -1.680466 3.809969 2.385803 3.468549 20.867284 -1.879213 4.159641 -3.429230 -2.814902 -2.422435 3.366741 -9.893559 -9.001928 -6.624190 -18.781498 -65.166229 -77.390953 91.249416 -9.464049 -3.874530 -10.642936 -9.212634 -1.614475 -1.845327 5.499566 -7.110543 28.894927 31.273406 -42.431917 -80.242876 5.861529 2.634872 -7.983842 -11.032194 -71.347338 10.756918 -123.968291 85.247968 -124.386706 -11.146540 -7.881938 -0.908127 0.258146 -0.639219 0.100747 0.939052 -69.096460 23.182588 76.126644 76.348941 74.771000 -11.612346 -4.494376 -0.637195 0.180124 0.723968 0.045091
6.335340 46.060050 4.798577 161.222279 -17.161313 1.067571 -1.309253 3.984602 1.896435 -0.054416 0.116639 0.076016 -0.096439 0.207106 0.134894 -1.685873 3.813771 2.409844 3.473551 21.012288 -1.905513 4.051770 -3.274335 -2.776580 -2.176414 3.214908 -9.840451 -8.826478 -7.161710 -19.615877 -68.091610 -77.330602 94.091981 -9.618275 -3.986364 -10.612934 -9.106108 -1.645190 -1.734593 6.059871 -7.473333 29.151051 32.029706 -42.257495 -81.177337 5.847241 2.783235 -8.360577 -10.722878 -71.168542 10.530803 -123.196809 85.232235 -123.547980 -11.568897 -7.870723 -0.886613 0.142760 -0.637667 0.065470 1.139398 -68.897048 23.005272 75.936069 76.350138 74.646603 -11.632153 -4.447765 -0.661820 0.221672 0.704954 0.043675
6.343820 46.062071 4.810602 161.164431 -17.338476 1.066602 -1.295565 4.090066 1.912782 -0.083259 0.050791 0.082223 -0.096629 0.209035 0.136994 -1.679653 3.829649 2.435242 3.451499 21.132066 -1.932832 3.927521 -3.130522 -2.729547 -1.925107 3.045998 -9.788670 -8.696310 -7.666175 -20.396175 -71.138512 -77.222831 97.057107 -9.777097 -4.087512 -10.579875 -9.023949 -1.673831 -1.641545 6.661847 -7.856277 29.346628 32.826297 -42.103470 -82.126202 5.833613 2.937562 -8.755669 -10.582173 -70.994268 10.435051 -123.040338 85.246166 -123.376825 -11.483603 -7.841633 -0.901057 0.148975 -0.644401 0.065840 1.157118 -68.722606 23.019956 75.885611 76.339379 74.630824 -11.599644 -4.413436 -0.654025 0.206533 0.679703 0.012433
6.353211 46.059543 4.828792 161.084310 -17.472658 1.034919 -1.287529 4.068305 1.974402 -0.068201 0.087807 0.080286 -0.096279 0.212105 0.139348 -1.660390 3.859846 2.461124 3.275578 21.233899 -1.909773 3.907865 -3.009733 -2.770460 -1.676489 2.864135 -9.744124 -8.615120 -8.145874 -21.107136 -74.283456 -77.063463 100.125429 -9.935113 -4.171307 -10.530424 -8.969999 -1.704514 -1.570039 7.303891 -8.250226 29.481142 33.683716 -41.957773 -83.111723 5.812283 3.122349 -9.158178 -10.500513 -70.864186 10.397815 -122.955772 85.272388 -123.272271 -11.138247 -7.771880 -0.953154 0.219946 -0.666524 0.088237 1.085042 -68.596259 23.142458 75.866913 76.319973 74.647577 -11.545200 -4.388306 -0.654710 0.162788 0.673396 -0.004520
6.361875 46.054208 4.847253 161.009949 -17.600175 0.985282 -1.263665 4.061180 2.053638 -0.053913 0.122029 0.080040 -0.095505 0.216420 0.141931 -1.638888 3.923547 2.464400 3.151919 21.299958 -1.878632 3.806629 -2.921095 -2.762257 -1.429814 2.670800 -9.690347 -8.589587 -8.626120 -21.728785 -77.473218 -76.854778 103.246887 -10.091509 -4.245821 -10.447621 -8.928934 -1.744978 -1.489989 7.967303 -8.649366 29.542891 34.613451 -41.821268 -84.137129 5.778431 3.336667 -9.567086 -10.417485 -70.746112 10.371481 -122.208662 85.235608 -122.453061 -10.952600 -7.673337 -0.985279 0.195391 -0.710722 0.078476 0.956228 -68.481465 23.298140 75.696230 76.327222 74.592114 -11.554953 -4.331795 -0.781901 0.235544 0.652941 0.036157
6.364414 46.048142 4.858522 160.970292 -17.759687 0.955490 -1.235810 4.135544 2.102359 -0.053227 0.125110 0.081598 -0.099079 0.255384 0.137428 -1.629892 3.941635 2.478920 3.053828 21.366272 -1.853795 3.651108 -2.860349 -2.721022 -1.181457 2.515205 -9.655544 -8.628039 -9.119731 -22.248874 -80.678729 -76.604677 106.396643 -10.250716 -4.313165 -10.317270 -8.879781 -1.747626 -1.426856 8.634533 -9.047519 29.525168 35.619250 -41.699933 -85.192426 5.740384 3.566553 -9.997002 -10.332442 -70.596288 10.299259 -121.803277 85.216498 -122.004953 -10.817787 -7.599469 -1.001392 0.159039 -0.741633 0.065857 0.869794 -68.334767 23.379447 75.553883 76.335477 74.544649 -11.587505 -4.261204 -0.846445 0.323492 0.618556 0.037475
6.364217 46.038888 4.872820 160.953783 -17.899841 0.909397 -1.216717 4.238707 2.155749 -0.052806 0.126776 0.082373 -0.109184 0.252341 0.137905 -1.516123 3.981447 2.539798 2.842086 21.410195 -1.867736 3.459577 -2.835748 -2.663142 -1.036040 2.359463 -9.670576 -8.739829 -9.618806 -22.664178 -83.892959 -76.327387 109.574707 -10.424887 -4.375448 -10.138466 -8.923316 -1.749203 -1.419936 9.307424 -9.436355 29.440256 36.698500 -41.595282 -86.275367 5.712850 3.802798 -10.455197 -10.367019 -70.459335 10.325314 -121.310543 85.189528 -121.511258 -10.598793 -7.512365 -1.031848 0.180185 -0.770777 0.079139 0.727528 -68.213959 23.466379 75.485811 76.319244 74.565310 -11.529123 -4.211661 -0.926152 0.316466 0.607003 0.055048
